<?xml version="1.0" encoding="UTF-8"?>
<!DOCTYPE svg PUBLIC "-//W3C//DTD SVG 1.1//EN" "http://www.w3.org/Graphics/SVG/1.1/DTD/svg11.dtd">
<!-- Creator: CorelDRAW 2020 (64 Bit) -->
<svg xmlns="http://www.w3.org/2000/svg" xml:space="preserve" width="210mm" height="297mm" version="1.1" style="shape-rendering:geometricPrecision; text-rendering:geometricPrecision; image-rendering:optimizeQuality; fill-rule:evenodd; clip-rule:evenodd"
viewBox="0 0 21000 29700"
 xmlns:xlink="http://www.w3.org/1999/xlink"
 xmlns:xodm="http://www.corel.com/coreldraw/odm/2003">
 <defs>
  <style type="text/css">
   <![CDATA[
    .fil0 {fill:#F1C40F;fill-rule:nonzero}
   ]]>
  </style>
 </defs>
 <g id="Camada_x0020_1">
  <metadata id="CorelCorpID_0Corel-Layer"/>
  <path class="fil0" d="M11365.12 14914.24c-68.67,19.48 -139.84,29.31 -210.97,29.31 0,0 -0.12,0 -0.12,0 -216.96,0 -420.72,-89.9 -573.73,-253.05 -151.83,-162.74 -237.17,-383.16 -237.17,-612.83 0,-75.45 9.37,-150.82 27.46,-223.69 2.27,-9.09 3.42,-18.47 3.42,-27.84 0,-59.82 -45.52,-108.33 -101.63,-108.33 -8.87,0 -17.7,1.27 -26.27,3.68 -172.3,48.89 -329.85,145.59 -456.17,279.71 -396.1,422.21 -396.1,1109.51 0,1531.97 189.47,203.02 447.22,317.36 715.96,317.36 0.85,0 1.73,0 2.57,0 0.96,-0.04 2.08,-0.04 2.92,-0.04 268.55,0 526.42,-114.26 715.66,-317.24 125.93,-134.65 216.58,-302.59 262.4,-486.41 2.26,-9.13 3.42,-18.46 3.42,-27.84 0,-59.85 -45.56,-108.41 -101.71,-108.41 -8.79,0 -17.55,1.23 -26.04,3.61l0 0.04zm-157.32 598.46c-151.48,162.32 -357.65,253.74 -572.58,253.74 -0.69,0 -1.5,0 -2.15,0 -0.65,0 -1.46,0 -2.04,0 -214.97,0 -421.37,-91.5 -572.93,-253.87 -316.86,-337.83 -316.86,-887.7 0,-1225.53 61.11,-65.01 131.97,-119.42 209.36,-160.57 -2.07,27.8 -3.07,55.93 -3.07,83.89 0,287.07 106.74,562.76 296.66,766.11 190.05,202.65 447.99,316.58 716.81,316.58 26.85,0 54.08,-1.18 80.77,-3.44 -38.79,82.29 -89.95,157.83 -150.87,223.09l0.04 0z"/>
 </g>
</svg>
